<svg width="274" height="274" viewBox="0 0 274 274" fill="none" xmlns="http://www.w3.org/2000/svg">
<rect width="274" height="274" rx="137" fill="white"/>
<path d="M156.912 113.934C159.835 108.34 161.695 102.243 162.493 96.0724C163.306 89.9042 162.846 83.6079 160.993 77.7843C160.564 76.3174 159.957 74.9145 159.391 73.5028L158.393 71.4504L158.145 70.9379L157.858 70.4452L157.286 69.4577L156.716 68.4724C156.526 68.1454 156.292 67.8406 156.084 67.5224L154.796 65.6424L153.375 63.8573C153.135 63.5635 152.914 63.2542 152.657 62.9736L151.884 62.1319C147.797 57.6118 142.906 53.8538 137.668 50.6659L140.16 50.6438C139.294 51.2624 138.355 51.9804 137.471 52.6896C136.576 53.4054 135.699 54.1455 134.831 54.8944C133.101 56.4033 131.435 57.9851 129.836 59.6178C128.223 61.2415 126.732 62.967 125.285 64.7167C124.591 65.6114 123.869 66.4863 123.228 67.4142C122.903 67.8737 122.561 68.3222 122.249 68.7905L121.333 70.1978C121.017 70.6618 120.738 71.1456 120.462 71.6272L119.627 73.0698L118.878 74.5478L118.503 75.2857L118.178 76.0413L117.526 77.5457C117.327 78.0517 117.159 78.5664 116.974 79.0745C116.569 80.0864 116.351 81.1335 116.055 82.1653C115.052 86.3208 115.1 90.5781 116.154 94.59C117.192 98.6197 119.38 102.347 122.11 105.698L124.297 108.13C125.044 108.928 125.89 109.655 126.677 110.421C127.432 111.159 128.38 111.986 129.277 112.79C130.17 113.607 131.064 114.427 131.939 115.269C135.434 118.638 138.772 122.208 141.848 126.041C144.927 129.865 147.751 133.952 150.148 138.342L150.267 138.561L150.373 138.846C152.914 145.637 154.54 153.031 154.122 160.64C153.906 164.424 153.249 168.251 151.926 171.878C150.625 175.506 148.807 178.972 146.483 182.036C144.183 185.118 141.463 187.853 138.47 190.162C135.481 192.477 132.262 194.448 128.893 196.01C122.154 199.16 114.977 200.976 107.779 201.829C100.572 202.682 93.326 202.556 86.2145 201.681C79.0985 200.808 72.1041 199.215 65.3372 196.984C51.799 192.521 39.1621 185.628 27.9613 176.99L23.8477 173.818L27.6851 170.542L28.0187 170.257L28.3015 170.029L28.8472 169.6C29.2117 169.318 29.5608 169.081 29.9186 168.821C30.63 168.29 31.3502 167.859 32.066 167.384C32.7796 166.903 33.5197 166.516 34.2443 166.079C34.6089 165.869 34.9712 165.648 35.3401 165.449L36.4536 164.87C37.1981 164.493 37.9338 164.086 38.6871 163.733L40.9582 162.703L42.0938 162.191C42.476 162.029 42.8626 161.886 43.247 161.733L45.5601 160.834C51.757 158.528 58.1638 157.017 64.5993 155.972L69.442 155.307C71.0569 155.106 72.6807 155.033 74.2979 154.891C77.5344 154.555 80.7776 154.635 84.0119 154.564C85.6313 154.5 87.2418 154.644 88.8546 154.699L93.6906 154.92C96.8984 155.207 100.097 155.569 103.296 155.894L101.783 162.381C101.275 162.186 100.926 162.036 100.522 161.859C100.133 161.687 99.7505 161.512 99.375 161.331C98.6216 160.971 97.8859 160.596 97.1613 160.204C95.7165 159.418 94.3003 158.596 92.935 157.697C90.1867 155.93 87.5997 153.932 85.1673 151.763C80.307 147.422 76.1536 142.283 72.9723 136.616C72.1461 135.216 71.4568 133.744 70.7388 132.291C70.1047 130.797 69.4265 129.326 68.9051 127.793C68.313 126.286 67.88 124.728 67.4072 123.186C67.1819 122.413 67.0162 121.622 66.8174 120.842C66.6252 120.06 66.4263 119.281 66.2982 118.487C65.0456 112.176 64.776 105.742 65.1936 99.4216L65.3217 97.4819L67.1466 97.6322C68.5008 97.7426 69.7004 97.9238 70.9575 98.1337C72.1991 98.3413 73.4252 98.5932 74.6469 98.8715C77.0859 99.4349 79.4896 100.126 81.8468 100.948C84.2063 101.766 86.5128 102.731 88.7507 103.831C90.9909 104.925 93.1626 106.164 95.2282 107.554C99.3683 110.315 103.137 113.649 106.204 117.535L106.785 118.258L107.326 119.011C107.682 119.515 108.057 120.005 108.395 120.52C109.047 121.567 109.743 122.583 110.308 123.679C111.546 125.807 112.476 128.087 113.353 130.36C112.286 128.162 111.175 125.992 109.809 123.982C109.175 122.948 108.415 121.998 107.704 121.021C107.335 120.544 106.933 120.089 106.548 119.625L105.967 118.931L105.349 118.269C102.075 114.727 98.2748 111.714 94.1236 109.328C89.9945 106.9 85.5098 105.141 80.9388 103.785C78.6479 103.118 76.3215 102.581 73.9775 102.166C72.8066 101.96 71.6291 101.783 70.4538 101.649C69.2939 101.516 68.0678 101.403 66.9853 101.372L68.9383 99.5807C68.8388 105.645 69.4795 111.676 70.8492 117.487C70.9973 118.22 71.2138 118.934 71.4192 119.649C71.6313 120.363 71.8147 121.088 72.0511 121.792C72.5481 123.195 73.001 124.611 73.602 125.968C74.1344 127.353 74.8148 128.672 75.4445 130.009C76.1581 131.305 76.8341 132.618 77.6382 133.857C79.198 136.36 80.9344 138.753 82.8852 140.96C84.8293 143.173 86.9546 145.219 89.1992 147.119C91.4504 149.01 93.8386 150.745 96.3527 152.258C97.6009 153.029 98.8911 153.725 100.188 154.383C100.837 154.71 101.494 155.019 102.148 155.309C102.475 155.455 102.801 155.594 103.126 155.726C103.436 155.852 103.804 155.994 104.023 156.071L127.834 164.336L102.51 162.557C99.4324 162.341 96.3593 162.082 93.2885 161.897L88.6778 161.824C87.1424 161.819 85.6048 161.72 84.076 161.83C81.0162 161.985 77.9475 162.014 74.9187 162.396C73.4031 162.562 71.8765 162.659 70.3698 162.878L65.8652 163.593C59.8936 164.687 54.0215 166.233 48.4365 168.41L46.3576 169.256C46.013 169.399 45.6617 169.532 45.3215 169.682L44.3118 170.159L42.2926 171.109C41.6254 171.434 40.9869 171.803 40.333 172.148L39.3565 172.671C39.034 172.85 38.7291 173.047 38.4132 173.235C37.7968 173.621 37.1407 173.972 36.5574 174.383C35.9698 174.79 35.3401 175.174 34.7967 175.598C34.5227 175.806 34.22 176.014 33.9682 176.219L33.5882 176.526L33.4115 176.67L33.2966 176.769L33.0204 170.323C35.6914 172.298 38.422 174.182 41.2145 175.97C44.0202 177.737 46.8834 179.403 49.8062 180.956C55.6718 184.02 61.7693 186.625 68.0457 188.64C80.5589 192.713 93.8739 194.476 106.745 193.051C113.161 192.316 119.446 190.714 125.152 188.065C130.839 185.421 135.956 181.687 139.59 176.869C143.264 172.084 145.349 166.256 145.745 160.147C146.184 154.027 144.952 147.696 142.787 141.642L143.014 142.148C138.894 134.266 133.13 127.103 126.675 120.615C125.873 119.797 125.049 118.998 124.224 118.196C123.387 117.398 122.576 116.652 121.662 115.721C120.782 114.82 119.863 113.969 119.022 113.022L116.561 110.112C113.459 106.074 110.863 101.399 109.681 96.2227C108.47 91.0751 108.618 85.6117 109.986 80.6343C111.365 75.6524 113.684 71.0771 116.541 67.0275C119.38 62.9515 122.663 59.2886 126.2 55.9482C127.971 54.2802 129.798 52.683 131.69 51.1652C132.639 50.4096 133.596 49.6673 134.575 48.9471C135.562 48.2203 136.526 47.5398 137.61 46.8307L138.883 46L140.102 46.8108C145.502 50.3964 150.484 54.7177 154.624 59.779L155.404 60.7224C155.662 61.0383 155.885 61.3829 156.128 61.7121L157.551 63.7093L158.834 65.8036C159.042 66.1571 159.272 66.4951 159.46 66.8574L160.021 67.9488L160.58 69.0402L160.858 69.5858L161.099 70.1514L162.053 72.4093C162.592 73.9535 163.134 75.4934 163.496 77.084C165.08 83.4113 165.118 90.028 163.885 96.3066C163.266 99.4504 162.336 102.512 161.178 105.471C160.021 108.429 158.618 111.29 156.897 113.941L156.912 113.934Z" fill="url(#paint0_radial_6429_10221)"/>
<path d="M163.805 130.357C164.616 128.077 165.652 125.881 166.774 123.732C167.905 121.584 169.167 119.499 170.561 117.5C173.338 113.496 176.619 109.778 180.507 106.714C182.436 105.165 184.521 103.793 186.735 102.64C188.94 101.478 191.268 100.502 193.694 99.8367L194.602 99.576C194.907 99.4965 195.216 99.4413 195.523 99.3728C196.14 99.2446 196.754 99.1055 197.372 98.9906C198.621 98.8359 199.867 98.604 201.126 98.5686C203.644 98.3521 206.163 98.5288 208.668 98.7674L209.857 98.8801L210.126 100.122C210.345 101.127 210.491 102.004 210.612 102.938C210.738 103.86 210.833 104.781 210.904 105.704C211.039 107.549 211.114 109.398 211.056 111.245C210.972 114.939 210.511 118.626 209.724 122.252C208.931 125.875 207.78 129.429 206.28 132.841C204.773 136.243 202.966 139.539 200.757 142.55C198.561 145.564 196.124 148.407 193.424 150.97C190.703 153.499 187.842 155.892 184.751 157.931C178.64 162.124 171.942 165.327 165.058 167.811L162.846 162.74C163.346 162.489 163.741 162.301 164.178 162.102C164.607 161.905 165.033 161.72 165.46 161.539C166.315 161.176 167.17 160.836 168.031 160.511C169.752 159.866 171.489 159.279 173.241 158.751C176.742 157.692 180.304 156.864 183.9 156.234C191.094 154.973 198.444 154.628 205.725 155.138C209.371 155.37 212.996 155.865 216.579 156.55C220.174 157.2 223.7 158.167 227.184 159.232C234.112 161.51 240.766 164.554 247.014 168.239L249.663 169.801L247.679 172.052C247.226 172.567 246.842 172.971 246.417 173.404C246.004 173.831 245.585 174.242 245.163 174.648C244.319 175.461 243.457 176.245 242.58 177.012C240.821 178.534 239.016 179.99 237.145 181.355C233.398 184.075 229.446 186.49 225.348 188.606C217.147 192.824 208.328 195.855 199.261 197.317C194.737 198.062 190.17 198.565 185.595 198.585L183.883 198.621C183.313 198.621 182.741 198.592 182.171 198.576L178.751 198.473L175.344 198.194L173.643 198.055L171.951 197.832C162.926 196.674 154.107 194.355 145.707 191.081C154.363 193.601 163.229 195.294 172.136 195.886L173.804 196.012L175.477 196.054L178.817 196.137L182.153 196.051C182.707 196.034 183.264 196.031 183.819 196.001L185.48 195.872C189.912 195.603 194.308 194.958 198.632 194.036C199.707 193.782 200.797 193.592 201.859 193.288L205.056 192.422L208.206 191.412C209.26 191.085 210.279 190.656 211.317 190.296C215.444 188.754 219.449 186.905 223.291 184.769C227.131 182.63 230.814 180.215 234.273 177.531C236.001 176.188 237.689 174.796 239.306 173.334C240.11 172.6 240.901 171.854 241.665 171.089C242.048 170.707 242.423 170.323 242.788 169.934C243.146 169.556 243.526 169.132 243.811 168.798L244.476 172.611C238.46 169.218 232.108 166.465 225.545 164.442C222.255 163.461 218.937 162.568 215.554 161.983C212.183 161.36 208.776 160.916 205.352 160.721C201.932 160.513 198.497 160.472 195.072 160.677C191.648 160.876 188.239 161.273 184.857 161.83C181.477 162.4 178.125 163.158 174.842 164.128C173.201 164.612 171.579 165.151 169.982 165.736C169.185 166.032 168.394 166.339 167.616 166.664C167.227 166.828 166.841 166.991 166.463 167.161C166.094 167.325 165.69 167.515 165.396 167.66L163.184 162.59C169.744 160.27 176.031 157.27 181.793 153.519C184.705 151.681 187.376 149.52 189.927 147.243C192.455 144.936 194.728 142.376 196.789 139.663C200.863 134.197 203.876 127.936 205.547 121.275C206.382 117.948 206.921 114.53 207.106 111.091C207.206 109.37 207.23 107.644 207.175 105.925C207.146 105.066 207.095 104.207 207.016 103.354C206.947 102.514 206.83 101.624 206.704 100.877L208.164 102.232C205.878 101.918 203.569 101.646 201.261 101.748C200.103 101.726 198.959 101.894 197.805 101.982C197.235 102.064 196.665 102.167 196.095 102.258C195.81 102.309 195.523 102.344 195.24 102.406L194.396 102.609C192.132 103.098 189.929 103.877 187.811 104.847C185.683 105.808 183.644 106.99 181.729 108.362C179.804 109.723 177.988 111.247 176.265 112.887C174.551 114.535 172.951 116.311 171.458 118.18C168.489 121.929 165.851 125.992 163.794 130.364L163.805 130.357Z" fill="url(#paint1_radial_6429_10221)"/>
<path d="M86.9836 203.521C86.0734 204.206 85.2008 204.924 84.3502 205.662C83.4952 206.393 82.6734 207.157 81.8825 207.946C80.294 209.512 78.8271 211.172 77.5502 212.93C76.9227 213.816 76.324 214.713 75.8093 215.645C75.3011 216.58 74.846 217.53 74.4749 218.497C74.1236 219.472 73.8497 220.459 73.6619 221.449C73.494 222.443 73.4432 223.437 73.4586 224.425L72.0823 222.596C72.6147 222.715 73.2775 222.845 73.8961 222.94C74.5257 223.044 75.162 223.126 75.8004 223.208C77.0774 223.362 78.3609 223.486 79.6511 223.543C82.2271 223.705 84.8141 223.652 87.3879 223.484C92.5332 223.121 97.6233 222.116 102.51 220.45C103.736 220.046 104.934 219.564 106.14 219.094C106.739 218.846 107.322 218.57 107.916 218.307C108.515 218.056 109.098 217.775 109.675 217.479C110.251 217.183 110.846 216.916 111.411 216.595L113.121 215.65C113.702 215.349 114.237 214.976 114.798 214.64C115.35 214.291 115.931 213.98 116.462 213.597C120.831 210.699 124.916 207.283 128.793 203.521C125.939 208.107 122.327 212.27 118.134 215.833C116.02 217.587 113.793 219.242 111.396 220.634C109.023 222.061 106.527 223.309 103.928 224.31C101.341 225.333 98.6661 226.148 95.9465 226.753C93.2203 227.328 90.4565 227.73 87.6773 227.889C84.9003 228.066 82.11 228.024 79.3396 227.772C77.9544 227.646 76.5737 227.451 75.1973 227.22C74.508 227.105 73.8232 226.959 73.1383 226.804C72.4402 226.647 71.7951 226.484 71.0329 226.256L69.6035 225.83L69.6565 224.427C69.7051 223.154 69.8973 221.895 70.2044 220.68C70.5314 219.469 70.9732 218.305 71.5123 217.203C72.6037 215.007 74.0441 213.063 75.6679 211.357C77.285 209.643 79.0922 208.163 80.9855 206.848C82.8965 205.56 84.8848 204.402 86.9902 203.523L86.9836 203.521Z" fill="url(#paint2_radial_6429_10221)"/>
<path d="M59.1161 129.562C56.8229 128.464 54.4745 127.631 52.104 127.008C49.7335 126.392 47.3342 126.034 44.9659 125.941C43.7818 125.855 42.602 125.961 41.4355 125.994C40.2779 126.184 39.1092 126.224 37.9869 126.551C35.7026 126.975 33.5596 127.901 31.4564 128.858L32.6582 126.553C32.7113 126.805 32.793 127.205 32.8814 127.543C32.9697 127.897 33.0692 128.252 33.1774 128.608C33.3917 129.319 33.6369 130.024 33.8976 130.727C34.4057 132.136 35.053 133.497 35.7357 134.836C37.1386 137.496 38.8441 140.001 40.8877 142.239C42.9069 144.497 45.2575 146.487 47.8423 148.219C50.436 149.94 53.266 151.385 56.2485 152.682C53.0053 152.428 49.7843 151.608 46.7178 150.309C43.6647 148.99 40.7706 147.163 38.2631 144.872C35.7512 142.59 33.595 139.891 31.927 136.917C31.0764 135.439 30.3628 133.886 29.7509 132.291C29.4372 131.495 29.1831 130.676 28.9401 129.85C28.8208 129.434 28.7103 129.017 28.6087 128.59C28.5049 128.151 28.4165 127.766 28.3303 127.227L28.0586 125.519L29.5299 124.923L31.4144 124.161C32.0441 123.911 32.6604 123.635 33.3254 123.483L35.2894 122.957C35.9434 122.787 36.6238 122.723 37.291 122.612C38.6232 122.365 39.9841 122.387 41.3251 122.336C42.6683 122.433 44.0071 122.466 45.315 122.745C47.9373 123.193 50.4625 124.022 52.7932 125.175C53.3699 125.477 53.9443 125.778 54.5054 126.098C55.0577 126.438 55.6122 126.765 56.138 127.141C57.2029 127.859 58.2147 128.663 59.1161 129.562Z" fill="url(#paint3_radial_6429_10221)"/>
<path d="M105.546 78.3611C104.254 76.1717 102.769 74.1701 101.15 72.332C99.526 70.4984 97.7321 68.8635 95.8189 67.4673C94.8844 66.736 93.8461 66.1661 92.8585 65.543C91.7915 65.0548 90.7995 64.4384 89.6861 64.0827C87.5519 63.1615 85.2565 62.7351 82.9788 62.3573L85.2609 61.1157C85.1637 61.3521 85.0091 61.7321 84.8942 62.0613C84.7705 62.4037 84.6556 62.755 84.5452 63.1085C84.3264 63.8176 84.1364 64.5401 83.9619 65.2691C83.5974 66.7228 83.3765 68.214 83.1975 69.7053C82.8794 72.6944 82.8971 75.7276 83.3477 78.7234C83.7653 81.7257 84.607 84.6861 85.7867 87.5648C86.9819 90.439 88.524 93.216 90.2759 95.9554C87.7265 93.9384 85.5084 91.4596 83.688 88.6716C81.8874 85.8747 80.5045 82.7442 79.7003 79.4458C78.8895 76.1518 78.6023 72.7076 78.8762 69.3098C78.9955 67.6087 79.2673 65.9208 79.6495 64.2551C79.8328 63.42 80.0803 62.5981 80.3366 61.7763C80.4691 61.3654 80.6083 60.9567 80.7629 60.5457C80.922 60.1216 81.0612 59.7548 81.2909 59.26L82.0178 57.6914L83.5731 58.0162L85.5614 58.4337C86.222 58.5751 86.8892 58.6922 87.5276 58.9352L89.4519 59.5936C90.0903 59.8167 90.6913 60.1437 91.3054 60.4242C92.5492 60.9633 93.6671 61.7387 94.8071 62.4435C95.8675 63.2719 96.9611 64.0474 97.8912 65.0084C99.8176 66.8421 101.452 68.9364 102.745 71.1943C103.054 71.7665 103.366 72.3365 103.653 72.9153C103.92 73.5051 104.201 74.0862 104.426 74.6915C104.912 75.8801 105.301 77.1128 105.548 78.3633L105.546 78.3611Z" fill="url(#paint4_radial_6429_10221)"/>
<path d="M171.07 78.3608C171.318 77.1104 171.707 75.8799 172.193 74.6891C172.418 74.0837 172.699 73.5049 172.966 72.9128C173.253 72.334 173.562 71.764 173.874 71.1918C175.166 68.934 176.801 66.8396 178.728 65.006C179.658 64.045 180.751 63.2717 181.812 62.441C182.954 61.7363 184.069 60.9609 185.313 60.4218C185.927 60.1412 186.528 59.8143 187.167 59.5911L189.091 58.9328C189.73 58.6898 190.395 58.5727 191.057 58.4313L193.046 58.0137L194.601 57.689L195.328 59.2575C195.558 59.7524 195.699 60.1213 195.856 60.5433C196.008 60.9542 196.15 61.3629 196.282 61.7738C196.541 62.5957 196.786 63.4175 196.969 64.2526C197.351 65.9184 197.623 67.6062 197.742 69.3074C198.014 72.7052 197.729 76.1472 196.918 79.4434C196.114 82.7417 194.731 85.8722 192.931 88.6691C191.108 91.4572 188.892 93.936 186.343 95.953C188.095 93.2136 189.637 90.4365 190.832 87.5623C192.012 84.6837 192.853 81.7233 193.271 78.7209C193.722 75.7252 193.739 72.6919 193.421 69.7028C193.242 68.2116 193.021 66.7203 192.657 65.2667C192.482 64.5376 192.292 63.8152 192.074 63.106C191.965 62.7525 191.848 62.4013 191.725 62.0588C191.61 61.7275 191.455 61.3497 191.358 61.1133L193.64 62.3549C191.362 62.7327 189.065 63.159 186.933 64.0803C185.819 64.436 184.827 65.0524 183.76 65.5406C182.773 66.1636 181.734 66.7336 180.8 67.4649C178.884 68.8633 177.093 70.4959 175.469 72.3296C173.85 74.1677 172.363 76.1693 171.073 78.3586L171.07 78.3608Z" fill="url(#paint5_radial_6429_10221)"/>
<path d="M219.094 129.562C219.995 128.661 221.005 127.857 222.072 127.141C222.598 126.765 223.152 126.438 223.704 126.098C224.266 125.778 224.84 125.477 225.417 125.175C227.747 124.022 230.273 123.193 232.895 122.745C234.203 122.466 235.542 122.433 236.885 122.336C238.226 122.389 239.584 122.367 240.919 122.612C241.586 122.723 242.266 122.787 242.92 122.957L244.884 123.483C245.549 123.637 246.168 123.911 246.795 124.161L248.68 124.923L250.151 125.519L249.88 127.227C249.793 127.766 249.705 128.151 249.601 128.59C249.5 129.017 249.389 129.434 249.27 129.85C249.027 130.676 248.773 131.495 248.459 132.291C247.847 133.886 247.133 135.439 246.283 136.917C244.615 139.891 242.459 142.588 239.947 144.872C237.441 147.161 234.547 148.99 231.492 150.309C228.426 151.608 225.202 152.43 221.961 152.682C224.944 151.385 227.772 149.938 230.367 148.219C232.952 146.487 235.301 144.499 237.322 142.239C239.366 140.003 241.071 137.496 242.474 134.836C243.159 133.497 243.804 132.136 244.312 130.727C244.573 130.024 244.818 129.319 245.032 128.608C245.138 128.252 245.238 127.897 245.328 127.543C245.419 127.205 245.501 126.805 245.552 126.553L246.753 128.858C244.652 127.901 242.507 126.975 240.223 126.551C239.101 126.224 237.934 126.184 236.774 125.994C235.606 125.961 234.428 125.855 233.244 125.941C230.876 126.034 228.476 126.39 226.106 127.008C223.735 127.631 221.387 128.464 219.094 129.562Z" fill="url(#paint6_radial_6429_10221)"/>
<path d="M190.42 203.521C192.526 204.398 194.514 205.555 196.425 206.846C198.316 208.16 200.123 209.64 201.743 211.355C203.364 213.06 204.805 215.004 205.898 217.2C206.435 218.303 206.879 219.467 207.206 220.678C207.513 221.895 207.706 223.152 207.754 224.425L207.807 225.827L206.378 226.254C205.616 226.481 204.97 226.645 204.272 226.802C203.585 226.956 202.9 227.102 202.213 227.217C200.837 227.449 199.456 227.643 198.071 227.769C195.301 228.023 192.51 228.063 189.733 227.886C186.954 227.727 184.19 227.325 181.464 226.751C178.745 226.146 176.069 225.33 173.482 224.308C170.886 223.309 168.39 222.058 166.015 220.631C163.62 219.237 161.391 217.585 159.277 215.831C155.084 212.269 151.472 208.105 148.617 203.519C152.494 207.281 156.579 210.696 160.949 213.595C161.479 213.979 162.06 214.289 162.613 214.638C163.174 214.973 163.709 215.347 164.29 215.647L165.999 216.593C166.565 216.911 167.159 217.18 167.736 217.477C168.313 217.773 168.896 218.055 169.495 218.305C170.087 218.566 170.672 218.844 171.271 219.091C172.477 219.562 173.674 220.044 174.901 220.448C179.785 222.114 184.875 223.119 190.023 223.481C192.594 223.649 195.184 223.702 197.76 223.541C199.05 223.483 200.333 223.36 201.61 223.205C202.246 223.123 202.885 223.042 203.515 222.938C204.133 222.843 204.798 222.712 205.328 222.593L203.952 224.422C203.965 223.435 203.917 222.441 203.749 221.447C203.559 220.457 203.287 219.471 202.936 218.495C202.565 217.525 202.11 216.577 201.601 215.643C201.084 214.711 200.488 213.814 199.861 212.928C198.584 211.169 197.117 209.508 195.528 207.944C194.737 207.155 193.915 206.391 193.06 205.659C192.21 204.921 191.337 204.201 190.427 203.519L190.42 203.521Z" fill="url(#paint7_radial_6429_10221)"/>
<path d="M139.857 97.217C144.695 97.217 148.617 93.2952 148.617 88.4574C148.617 83.6196 144.695 79.6978 139.857 79.6978C135.019 79.6978 131.098 83.6196 131.098 88.4574C131.098 93.2952 135.019 97.217 139.857 97.217Z" fill="url(#paint8_radial_6429_10221)"/>
<defs>
<radialGradient id="paint0_radial_6429_10221" cx="0" cy="0" r="1" gradientUnits="userSpaceOnUse" gradientTransform="translate(95.8976 122.935) scale(76.0001 76.0001)">
<stop stop-color="#FFD5B3"/>
<stop offset="0.15" stop-color="#FDCDA9"/>
<stop offset="0.39" stop-color="#F9BA90"/>
<stop offset="0.7" stop-color="#F39A67"/>
<stop offset="0.96" stop-color="#ED7C3F"/>
</radialGradient>
<radialGradient id="paint1_radial_6429_10221" cx="0" cy="0" r="1" gradientUnits="userSpaceOnUse" gradientTransform="translate(197.456 148.718) scale(52.074 52.074)">
<stop stop-color="#FFD5B3"/>
<stop offset="0.15" stop-color="#FDCDA9"/>
<stop offset="0.39" stop-color="#F9BA90"/>
<stop offset="0.7" stop-color="#F39A67"/>
<stop offset="0.96" stop-color="#ED7C3F"/>
</radialGradient>
<radialGradient id="paint2_radial_6429_10221" cx="0" cy="0" r="1" gradientUnits="userSpaceOnUse" gradientTransform="translate(99.9276 214.806) scale(23.5682 23.5682)">
<stop stop-color="#FFD5B3"/>
<stop offset="0.15" stop-color="#FDCDA9"/>
<stop offset="0.39" stop-color="#F9BA90"/>
<stop offset="0.7" stop-color="#F39A67"/>
<stop offset="0.96" stop-color="#ED7C3F"/>
</radialGradient>
<radialGradient id="paint3_radial_6429_10221" cx="0" cy="0" r="1" gradientUnits="userSpaceOnUse" gradientTransform="translate(44.2523 138.386) scale(16.3263 16.3263)">
<stop stop-color="#FFD5B3"/>
<stop offset="0.15" stop-color="#FDCDA9"/>
<stop offset="0.39" stop-color="#F9BA90"/>
<stop offset="0.7" stop-color="#F39A67"/>
<stop offset="0.96" stop-color="#ED7C3F"/>
</radialGradient>
<radialGradient id="paint4_radial_6429_10221" cx="0" cy="0" r="1" gradientUnits="userSpaceOnUse" gradientTransform="translate(93.1546 77.6077) scale(17.3713 17.3713)">
<stop stop-color="#FFD5B3"/>
<stop offset="0.15" stop-color="#FDCDA9"/>
<stop offset="0.39" stop-color="#F9BA90"/>
<stop offset="0.7" stop-color="#F39A67"/>
<stop offset="0.96" stop-color="#ED7C3F"/>
</radialGradient>
<radialGradient id="paint5_radial_6429_10221" cx="0" cy="0" r="1" gradientUnits="userSpaceOnUse" gradientTransform="translate(183.462 77.6075) scale(17.3713 17.3713)">
<stop stop-color="#FFD5B3"/>
<stop offset="0.15" stop-color="#FDCDA9"/>
<stop offset="0.39" stop-color="#F9BA90"/>
<stop offset="0.7" stop-color="#F39A67"/>
<stop offset="0.96" stop-color="#ED7C3F"/>
</radialGradient>
<radialGradient id="paint6_radial_6429_10221" cx="0" cy="0" r="1" gradientUnits="userSpaceOnUse" gradientTransform="translate(233.958 138.386) scale(16.3263 16.3263)">
<stop stop-color="#FFD5B3"/>
<stop offset="0.15" stop-color="#FDCDA9"/>
<stop offset="0.39" stop-color="#F9BA90"/>
<stop offset="0.7" stop-color="#F39A67"/>
<stop offset="0.96" stop-color="#ED7C3F"/>
</radialGradient>
<radialGradient id="paint7_radial_6429_10221" cx="0" cy="0" r="1" gradientUnits="userSpaceOnUse" gradientTransform="translate(177.476 214.806) scale(23.5682 23.5682)">
<stop stop-color="#FFD5B3"/>
<stop offset="0.15" stop-color="#FDCDA9"/>
<stop offset="0.39" stop-color="#F9BA90"/>
<stop offset="0.7" stop-color="#F39A67"/>
<stop offset="0.96" stop-color="#ED7C3F"/>
</radialGradient>
<radialGradient id="paint8_radial_6429_10221" cx="0" cy="0" r="1" gradientUnits="userSpaceOnUse" gradientTransform="translate(139.857 88.4574) scale(8.75964 8.75964)">
<stop stop-color="#FFD5B3"/>
<stop offset="0.55" stop-color="#FDCDA9"/>
<stop offset="1" stop-color="#FCC59E"/>
</radialGradient>
</defs>
</svg>
